<svg xmlns="http://www.w3.org/2000/svg" xmlns:xlink="http://www.w3.org/1999/xlink" width="96" zoomAndPan="magnify" viewBox="0 0 72 72" height="96" preserveAspectRatio="xMidYMid meet" version="1.0"><defs><clipPath id="162785b838"><path d="M 8.574219 0 L 63.324219 0 L 63.324219 59 L 8.574219 59 Z M 8.574219 0 " clip-rule="nonzero"/></clipPath><clipPath id="b899761928"><path d="M 8.574219 38 L 63.324219 38 L 63.324219 72 L 8.574219 72 Z M 8.574219 38 " clip-rule="nonzero"/></clipPath></defs><g clip-path="url(#162785b838)"><path fill="#000000" d="M 50.632812 17.691406 L 50.632812 15.914062 C 50.632812 8.0625 44.738281 1.1875 36.894531 0.65625 C 28.316406 0.0859375 21.144531 6.90625 21.144531 15.382812 L 21.144531 17.671875 L 12.976562 17.671875 C 10.636719 17.671875 8.746094 19.566406 8.746094 21.910156 L 8.746094 58.496094 L 46.113281 58.496094 C 47.988281 58.496094 49.707031 57.152344 49.894531 55.273438 C 50.117188 53.121094 48.433594 51.296875 46.320312 51.296875 L 37.050781 51.296875 C 32.476562 51.296875 28.402344 47.953125 27.953125 43.40625 C 27.4375 38.1875 31.546875 33.761719 36.65625 33.761719 L 63.015625 33.761719 L 63.015625 21.894531 C 63.015625 19.550781 61.125 17.65625 58.785156 17.65625 L 50.632812 17.65625 Z M 26.304688 17.691406 L 26.304688 15.398438 C 26.304688 10.109375 30.601562 5.804688 35.878906 5.804688 C 41.160156 5.804688 45.457031 10.109375 45.457031 15.398438 L 45.457031 17.691406 Z M 26.304688 17.691406 " fill-opacity="1" fill-rule="nonzero"/></g><g clip-path="url(#b899761928)"><path fill="#078fcd" d="M 33.09375 42.941406 C 33.285156 44.820312 35.003906 46.164062 36.878906 46.164062 L 45.921875 46.164062 C 50.496094 46.164062 54.570312 49.503906 55.019531 54.050781 C 55.535156 59.269531 51.425781 63.699219 46.320312 63.699219 L 8.746094 63.699219 L 8.746094 67.917969 C 8.746094 70.261719 10.636719 72.15625 12.976562 72.15625 L 58.800781 72.15625 C 61.140625 72.15625 63.03125 70.261719 63.03125 67.917969 L 63.03125 38.980469 L 36.671875 38.980469 C 34.574219 38.960938 32.890625 40.789062 33.09375 42.941406 Z M 33.09375 42.941406 " fill-opacity="1" fill-rule="nonzero"/></g></svg>